<svg xmlns="http://www.w3.org/2000/svg" viewBox="0 0 133.68 132.94"><defs><style>.cls-1{fill:#dd0a18;}.cls-2{fill:#fff;}</style></defs><title>Asset 1</title><g id="Layer_2" data-name="Layer 2"><g id="Layer_1-2" data-name="Layer 1"><path class="cls-1" d="M27.34,121.58l17.89-5.83q3.81,8.59,7.64,17.19l14-12.6,2.54,2.3,11.43,10.3,7.64-17.19,17.89,5.83V102.76l18.71-2q-3.83-8.59-7.66-17.18l16.3-9.4-14-12.58,1.09-1.5,10-13.71-17.9-5.8q2-9.21,3.92-18.4l-18.71,2L94.17,5.81,77.89,15.23,69.52,3.69,66.84,0,55.79,15.23,39.5,5.81,35.6,24.22l-18.71-2,3.93,18.4-17.9,5.8,10,13.71L14,61.65,0,74.23l16.3,9.4q-3.83,8.58-7.66,17.18l18.71,2Q27.34,112.17,27.34,121.58Z"/><path class="cls-2" d="M26,81.05l-.24-21.71,6.86-.07s6.49,12.84,7,14.19h.1c-.33-2.68-.61-14.27-.61-14.27l5.31-.06.25,21.71-6.12.07L30.94,66c.18,2.73.4,15,.4,15Z"/><path class="cls-2" d="M62.26,71.88l-7.8.09,0,4,8.73-.09,0,4.76-14.56.17-.24-21.71,14.1-.16.06,4.77-8.28.09,0,3.48,7.79-.09Z"/><path class="cls-2" d="M70,80.56,64.75,58.91,71,58.84l2.59,15.65c.16-1.14,2.5-15.71,2.5-15.71l6.21-.07s2.33,14.19,2.5,15.5l2.27-15.56,5.9-.06L87.86,80.36l-6.34.07L80,71.94c-.36-2-1-6.49-1-6.49S78.14,71.1,78,72l-1.55,8.52Z"/><path class="cls-2" d="M104.62,80.52c-2.19,0-3.3-1.07-3.33-3.28s1.06-3.36,3.25-3.39,3.29,1.08,3.36,3.32-1.06,3.33-3.25,3.35Zm-2.22-7.83-1-14.2,6-.06-.67,14.21Z"/></g></g></svg>